<?xml version="1.0" encoding="UTF-8"?>
<svg width="154px" height="153px" viewBox="0 0 154 153" version="1.1" xmlns="http://www.w3.org/2000/svg" xmlns:xlink="http://www.w3.org/1999/xlink">
    <!-- Generator: Sketch 50 (54983) - http://www.bohemiancoding.com/sketch -->
    <title>delete</title>
    <desc>Created with Sketch.</desc>
    <defs></defs>
    <g id="Page-1" stroke="none" stroke-width="1" fill="none" fill-rule="evenodd">
        <g id="editor" transform="translate(-154.000000, -244.000000)" fill="#231F20" fill-rule="nonzero">
            <g id="delete" transform="translate(154.000000, 244.000000)">
                <path d="M0.01,-2.84217094e-14 L0.01,153 L153.01,153 L153.01,-2.84217094e-14 L0.01,-2.84217094e-14 Z M76.51,36 C78.9952814,36 81.01,38.0147186 81.01,40.5 C81.01,42.9852814 78.9952814,45 76.51,45 C74.0247186,45 72.01,42.9852814 72.01,40.5 C72.0099939,38.0186186 74.0186248,36.0055142 76.5,36 L76.51,36 Z M76.51,54 C78.9952814,54 81.01,56.0147186 81.01,58.5 C81.01,60.9852814 78.9952814,63 76.51,63 C74.0247186,63 72.01,60.9852814 72.01,58.5 C72.0099939,56.0186186 74.0186248,54.0055142 76.5,54 L76.51,54 Z M76.51,117 C74.0247186,117 72.01,114.985281 72.01,112.5 C72.01,110.014719 74.0247186,108 76.51,108 C78.9952814,108 81.01,110.014719 81.01,112.5 C81.010003,113.695209 80.5345247,114.84132 79.6884469,115.685521 C78.8423692,116.529723 77.6952059,117.002656 76.5,117 L76.51,117 Z M76.51,99 C74.0247186,99 72.01,96.9852814 72.01,94.5 C72.01,92.0147186 74.0247186,90 76.51,90 C78.9952814,90 81.01,92.0147186 81.01,94.5 C81.010003,95.6952088 80.5345247,96.8413195 79.6884469,97.6855213 C78.8423692,98.529723 77.6952059,99.002656 76.5,99 L76.51,99 Z M108.01,101.73 L101.74,108 L76.51,82.77 L51.28,108 L45.01,101.73 L70.09,76.65 L45.01,51.59 L51.28,45.32 L76.51,70.55 L101.74,45.32 L108.01,51.59 L82.93,76.67 L108.01,101.73 Z" id="Shape"></path>
            </g>
        </g>
    </g>
</svg>