<?xml version="1.0" encoding="UTF-8"?>
<svg width="154px" height="153px" viewBox="0 0 154 153" version="1.1" xmlns="http://www.w3.org/2000/svg" xmlns:xlink="http://www.w3.org/1999/xlink">
    <!-- Generator: Sketch 50 (54983) - http://www.bohemiancoding.com/sketch -->
    <title>new-folder</title>
    <desc>Created with Sketch.</desc>
    <defs></defs>
    <g id="Page-1" stroke="none" stroke-width="1" fill="none" fill-rule="evenodd">
        <g id="editor" transform="translate(-462.000000, -244.000000)" fill="#231F20" fill-rule="nonzero">
            <g id="new-folder" transform="translate(462.000000, 244.000000)">
                <path d="M0.01,-2.84217094e-14 L0.01,153 L153.01,153 L153.01,-2.84217094e-14 L0.01,-2.84217094e-14 Z M67.51,117 C65.0247186,117 63.01,114.985281 63.01,112.5 C63.01,110.014719 65.0247186,108 67.51,108 C69.9952814,108 72.01,110.014719 72.01,112.5 C72.010003,113.695209 71.5345247,114.84132 70.6884469,115.685521 C69.8423692,116.529723 68.6952059,117.002656 67.5,117 L67.51,117 Z M67.51,99 C65.0247186,99 63.01,96.9852814 63.01,94.5 C63.01,92.0147186 65.0247186,90 67.51,90 C69.9952814,90 72.01,92.0147186 72.01,94.5 C72.010003,95.6952088 71.5345247,96.8413195 70.6884469,97.6855213 C69.8423692,98.529723 68.6952059,99.002656 67.5,99 L67.51,99 Z M40.19,108.64 L33.83,102.28 L59.29,76.82 L33.83,51.36 L40.19,45 L72.01,76.82 L40.19,108.64 Z M67.51,63 C65.0247186,63 63.01,60.9852814 63.01,58.5 C63.01,56.0147186 65.0247186,54 67.51,54 C69.9952814,54 72.01,56.0147186 72.01,58.5 C72.010003,59.6952088 71.5345247,60.8413195 70.6884469,61.6855213 C69.8423692,62.529723 68.6952059,63.002656 67.5,63 L67.51,63 Z M67.51,45 C65.0247186,45 63.01,42.9852814 63.01,40.5 C63.01,38.0147186 65.0247186,36 67.51,36 C69.9952814,36 72.01,38.0147186 72.01,40.5 C72.010003,41.6952088 71.5345247,42.8413195 70.6884469,43.6855213 C69.8423692,44.529723 68.6952059,45.002656 67.5,45 L67.51,45 Z M85.51,117 C83.0247186,117 81.01,114.985281 81.01,112.5 C81.01,110.014719 83.0247186,108 85.51,108 C87.9952814,108 90.01,110.014719 90.01,112.5 C90.010003,113.695209 89.5345247,114.84132 88.6884469,115.685521 C87.8423692,116.529723 86.6952059,117.002656 85.5,117 L85.51,117 Z M90.01,99 L81.01,99 L81.01,54 L90.01,54 L90.01,99 Z M85.51,45 C83.0247186,45 81.01,42.9852814 81.01,40.5 C81.01,38.0147186 83.0247186,36 85.51,36 C87.9952814,36 90.01,38.0147186 90.01,40.5 C90.010003,41.6952088 89.5345247,42.8413195 88.6884469,43.6855213 C87.8423692,44.529723 86.6952059,45.002656 85.5,45 L85.51,45 Z M103.51,117 C101.024719,117 99.01,114.985281 99.01,112.5 C99.01,110.014719 101.024719,108 103.51,108 C105.995281,108 108.01,110.014719 108.01,112.5 C108.010003,113.695209 107.534525,114.84132 106.688447,115.685521 C105.842369,116.529723 104.695206,117.002656 103.5,117 L103.51,117 Z M103.51,99 C101.024719,99 99.01,96.9852814 99.01,94.5 C99.01,92.0147186 101.024719,90 103.51,90 C105.995281,90 108.01,92.0147186 108.01,94.5 C108.010003,95.6952088 107.534525,96.8413195 106.688447,97.6855213 C105.842369,98.529723 104.695206,99.002656 103.5,99 L103.51,99 Z M103.51,81 C101.68992,81 100.049057,79.9036102 99.3525421,78.2220754 C98.6560276,76.5405407 99.0410285,74.6050105 100.328019,73.3180195 C101.61501,72.0310285 103.550541,71.6460276 105.232075,72.3425421 C106.91361,73.0390566 108.01,74.6799199 108.01,76.5 C108.010003,77.6952088 107.534525,78.8413195 106.688447,79.6855213 C105.842369,80.529723 104.695206,81.002656 103.5,81 L103.51,81 Z M103.51,63 C101.024719,63 99.01,60.9852814 99.01,58.5 C99.01,56.0147186 101.024719,54 103.51,54 C105.995281,54 108.01,56.0147186 108.01,58.5 C108.010003,59.6952088 107.534525,60.8413195 106.688447,61.6855213 C105.842369,62.529723 104.695206,63.002656 103.5,63 L103.51,63 Z M103.51,45 C101.024719,45 99.01,42.9852814 99.01,40.5 C99.01,38.0147186 101.024719,36 103.51,36 C105.995281,36 108.01,38.0147186 108.01,40.5 C108.010003,41.6952088 107.534525,42.8413195 106.688447,43.6855213 C105.842369,44.529723 104.695206,45.002656 103.5,45 L103.51,45 Z" id="Shape"></path>
            </g>
        </g>
    </g>
</svg>