<?xml version="1.0" encoding="UTF-8"?>
<svg width="154px" height="153px" viewBox="0 0 154 153" version="1.1" xmlns="http://www.w3.org/2000/svg" xmlns:xlink="http://www.w3.org/1999/xlink">
    <!-- Generator: Sketch 50 (54983) - http://www.bohemiancoding.com/sketch -->
    <title>new-file</title>
    <desc>Created with Sketch.</desc>
    <defs></defs>
    <g id="Page-1" stroke="none" stroke-width="1" fill="none" fill-rule="evenodd">
        <g id="editor" transform="translate(0.000000, -244.000000)" fill="#231F20" fill-rule="nonzero">
            <g id="new-file" transform="translate(0.000000, 244.000000)">
                <path d="M0.01,-2.84217094e-14 L0.01,153 L153.01,153 L153.01,-2.84217094e-14 L0.01,-2.84217094e-14 Z M76.51,117 C74.0247186,117 72.01,114.985281 72.01,112.5 C72.01,110.014719 74.0247186,108 76.51,108 C78.9952814,108 81.01,110.014719 81.01,112.5 C81.010003,113.695209 80.5345247,114.84132 79.6884469,115.685521 C78.8423692,116.529723 77.6952059,117.002656 76.5,117 L76.51,117 Z M76.51,99 C74.0247186,99 72.01,96.9852814 72.01,94.5 C72.01,92.0147186 74.0247186,90 76.51,90 C78.9952814,90 81.01,92.0147186 81.01,94.5 C81.010003,95.6952088 80.5345247,96.8413195 79.6884469,97.6855213 C78.8423692,98.529723 77.6952059,99.002656 76.5,99 L76.51,99 Z M49.19,108.64 L42.83,102.28 L68.29,76.82 L42.83,51.36 L49.19,45 L81.01,76.82 L49.19,108.64 Z M76.51,63 C74.0247186,63 72.01,60.9852814 72.01,58.5 C72.01,56.0147186 74.0247186,54 76.51,54 C78.9952814,54 81.01,56.0147186 81.01,58.5 C81.010003,59.6952088 80.5345247,60.8413195 79.6884469,61.6855213 C78.8423692,62.529723 77.6952059,63.002656 76.5,63 L76.51,63 Z M76.51,45 C74.0247186,45 72.01,42.9852814 72.01,40.5 C72.01,38.0147186 74.0247186,36 76.51,36 C78.9952814,36 81.01,38.0147186 81.01,40.5 C81.010003,41.6952088 80.5345247,42.8413195 79.6884469,43.6855213 C78.8423692,44.529723 77.6952059,45.002656 76.5,45 L76.51,45 Z" id="Shape"></path>
            </g>
        </g>
    </g>
</svg>