<?xml version="1.0" encoding="UTF-8"?>
<svg width="154px" height="153px" viewBox="0 0 154 153" version="1.1" xmlns="http://www.w3.org/2000/svg" xmlns:xlink="http://www.w3.org/1999/xlink">
    <!-- Generator: Sketch 50 (54983) - http://www.bohemiancoding.com/sketch -->
    <title>rename</title>
    <desc>Created with Sketch.</desc>
    <defs></defs>
    <g id="Page-1" stroke="none" stroke-width="1" fill="none" fill-rule="evenodd">
        <g id="editor" transform="translate(-616.000000, -244.000000)" fill="#231F20" fill-rule="nonzero">
            <g id="rename" transform="translate(616.000000, 244.000000)">
                <polygon id="Shape" points="93.51 85.49 113.49 85.49 103.5 65.51"></polygon>
                <path d="M0.01,-2.84217094e-14 L0.01,153 L153.01,153 L153.01,-2.84217094e-14 L0.01,-2.84217094e-14 Z M58.51,117 C56.0247186,117 54.01,114.985281 54.01,112.5 C54.01,110.014719 56.0247186,108 58.51,108 C60.9952814,108 63.01,110.014719 63.01,112.5 C63.010003,113.695209 62.5345247,114.84132 61.6884469,115.685521 C60.8423692,116.529723 59.6952059,117.002656 58.5,117 L58.51,117 Z M58.51,99 C56.0247186,99 54.01,96.9852814 54.01,94.5 C54.01,92.0147186 56.0247186,90 58.51,90 C60.9952814,90 63.01,92.0147186 63.01,94.5 C63.010003,95.6952088 62.5345247,96.8413195 61.6884469,97.6855213 C60.8423692,98.529723 59.6952059,99.002656 58.5,99 L58.51,99 Z M31.19,108.64 L24.83,102.28 L50.29,76.82 L24.83,51.36 L31.19,45 L63.01,76.82 L31.19,108.64 Z M58.51,63 C56.0247186,63 54.01,60.9852814 54.01,58.5 C54.01,56.0147186 56.0247186,54 58.51,54 C60.9952814,54 63.01,56.0147186 63.01,58.5 C63.010003,59.6952088 62.5345247,60.8413195 61.6884469,61.6855213 C60.8423692,62.529723 59.6952059,63.002656 58.5,63 L58.51,63 Z M58.51,45 C56.0247186,45 54.01,42.9852814 54.01,40.5 C54.01,38.0147186 56.0247186,36 58.51,36 C60.9952814,36 63.01,38.0147186 63.01,40.5 C63.010003,41.6952088 62.5345247,42.8413195 61.6884469,43.6855213 C60.8423692,44.529723 59.6952059,45.002656 58.5,45 L58.51,45 Z M124.75,108 L118.01,94.49 L89.01,94.49 L82.26,107.99 L72.01,107.99 L103.51,44.99 L135.01,107.99 L124.75,108 Z" id="Shape"></path>
            </g>
        </g>
    </g>
</svg>