<svg id="Layer_1" data-name="Layer 1" xmlns="http://www.w3.org/2000/svg" viewBox="0 0 153 153"><defs><style>.cls-1{fill:#231f20;}</style></defs><title>Untitled-3</title><path class="cls-1" d="M211,210.41v153H364v-153Zm76.5,36a4.5,4.5,0,1,1-4.5,4.5A4.5,4.5,0,0,1,287.49,246.41Zm0,18a4.5,4.5,0,1,1-4.5,4.5A4.5,4.5,0,0,1,287.49,264.41Zm0,63a4.5,4.5,0,1,1,4.5-4.5A4.5,4.5,0,0,1,287.49,327.41Zm0-18a4.5,4.5,0,1,1,4.5-4.5A4.5,4.5,0,0,1,287.49,309.41Zm31.5,2.73-6.27,6.27-25.23-25.23-25.23,25.23L256,312.14l25.08-25.08L256,262l6.27-6.27,25.23,25.23,25.23-25.23L319,262l-25.08,25.08Z" transform="translate(-210.99 -210.41)"/></svg>
