<svg id="Layer_1" data-name="Layer 1" xmlns="http://www.w3.org/2000/svg" viewBox="0 0 153 153"><defs><style>.cls-1{fill:#231f20;}</style></defs><title>Untitled-3</title><path class="cls-1" d="M211,210.41v153H364v-153Zm76.5,117a4.5,4.5,0,1,1,4.5-4.5A4.5,4.5,0,0,1,287.49,327.41Zm0-18a4.5,4.5,0,1,1,4.5-4.5A4.5,4.5,0,0,1,287.49,309.41Zm-27.32,9.64-6.36-6.36,25.46-25.46-25.46-25.46,6.36-6.36L292,287.23Zm27.32-45.64a4.5,4.5,0,1,1,4.5-4.5A4.5,4.5,0,0,1,287.49,273.41Zm0-18a4.5,4.5,0,1,1,4.5-4.5A4.5,4.5,0,0,1,287.49,255.41Zm22.5,72h-9v-81h9Z" transform="translate(-210.99 -210.41)"/></svg>
