<svg id="Layer_1" data-name="Layer 1" xmlns="http://www.w3.org/2000/svg" viewBox="0 0 153 153"><defs><style>.cls-1{fill:#231f20;}</style></defs><title>Untitled-3</title><path class="cls-1" d="M211,210.41v153H364v-153Zm67.5,117a4.5,4.5,0,1,1,4.5-4.5A4.5,4.5,0,0,1,278.49,327.41Zm0-18a4.5,4.5,0,1,1,4.5-4.5A4.5,4.5,0,0,1,278.49,309.41Zm-27.32,9.64-6.36-6.36,25.46-25.46-25.46-25.46,6.36-6.36L283,287.23Zm27.32-45.64a4.5,4.5,0,1,1,4.5-4.5A4.5,4.5,0,0,1,278.49,273.41Zm0-18a4.5,4.5,0,1,1,4.5-4.5A4.5,4.5,0,0,1,278.49,255.41Zm18,72a4.5,4.5,0,1,1,4.5-4.5A4.5,4.5,0,0,1,296.49,327.41Zm4.5-18h-9v-45h9Zm-4.5-54a4.5,4.5,0,1,1,4.5-4.5A4.5,4.5,0,0,1,296.49,255.41Zm18,72a4.5,4.5,0,1,1,4.5-4.5A4.5,4.5,0,0,1,314.49,327.41Zm0-18a4.5,4.5,0,1,1,4.5-4.5A4.5,4.5,0,0,1,314.49,309.41Zm0-18a4.5,4.5,0,1,1,4.5-4.5A4.5,4.5,0,0,1,314.49,291.41Zm0-18a4.5,4.5,0,1,1,4.5-4.5A4.5,4.5,0,0,1,314.49,273.41Zm0-18a4.5,4.5,0,1,1,4.5-4.5A4.5,4.5,0,0,1,314.49,255.41Z" transform="translate(-210.99 -210.41)"/></svg>
