<svg id="Layer_1" data-name="Layer 1" xmlns="http://www.w3.org/2000/svg" viewBox="0 0 153 153"><defs><style>.cls-1{fill:#231f20;}</style></defs><title>Untitled-3</title><polygon class="cls-1" points="93.51 85.49 113.49 85.49 103.5 65.51 93.51 85.49"/><path class="cls-1" d="M211,210.41v153H364v-153Zm58.5,117a4.5,4.5,0,1,1,4.5-4.5A4.5,4.5,0,0,1,269.49,327.41Zm0-18a4.5,4.5,0,1,1,4.5-4.5A4.5,4.5,0,0,1,269.49,309.41Zm-27.32,9.64-6.36-6.36,25.46-25.46-25.46-25.46,6.36-6.36L274,287.23Zm27.32-45.64a4.5,4.5,0,1,1,4.5-4.5A4.5,4.5,0,0,1,269.49,273.41Zm0-18a4.5,4.5,0,1,1,4.5-4.5A4.5,4.5,0,0,1,269.49,255.41Zm66.24,63L329,304.9H300l-6.75,13.5H283l31.5-63,31.5,63Z" transform="translate(-210.99 -210.41)"/></svg>
