<svg id="Layer_1" data-name="Layer 1" xmlns="http://www.w3.org/2000/svg" viewBox="0 0 154.64 154.64"><defs><style>.cls-1{fill:#231f20;}</style></defs><title>Untitled-3</title><path class="cls-1" d="M288.21,209.74a77.32,77.32,0,1,0,77.32,77.32A77.32,77.32,0,0,0,288.21,209.74ZM321,256.64a4.77,4.77,0,0,1,4.75,4.73,4.63,4.63,0,0,1-4.59,4.6,4.77,4.77,0,0,1-4.72-4.63A4.63,4.63,0,0,1,321,256.64Zm-61.45,52.79a36.7,36.7,0,0,0,24.05,14,35.24,35.24,0,0,0,4.93.34,4.61,4.61,0,1,1,.39,9.22,37.61,37.61,0,0,1-4-.15,43.31,43.31,0,0,1-8.47-1.48,46.13,46.13,0,0,1-32.37-33.07,44.74,44.74,0,0,1-1.26-7.89,46,46,0,0,1,25.73-44.75,44.77,44.77,0,0,1,12.9-4.06,49,49,0,0,1,7.23-.57,4.61,4.61,0,0,1,.38,9.21c-1.11.06-2.23.07-3.35.15a35.36,35.36,0,0,0-11.19,2.69,36.76,36.76,0,0,0-15,56.31Zm47,19.55a4.59,4.59,0,0,1-4.58-4.61,4.72,4.72,0,0,1,4.74-4.66,4.63,4.63,0,0,1,4.6,4.61A4.71,4.71,0,0,1,306.58,329Zm.2-74.54a4.74,4.74,0,0,1-4.74-4.68,4.64,4.64,0,0,1,4.62-4.6,4.75,4.75,0,0,1,4.74,4.68A4.63,4.63,0,0,1,306.78,254.44ZM321,317.53a4.61,4.61,0,0,1-4.63-4.61,4.72,4.72,0,0,1,4.7-4.71,4.6,4.6,0,0,1,4.6,4.57A4.75,4.75,0,0,1,321,317.53ZM329.09,301a4.63,4.63,0,0,1-4.65-4.5,4.69,4.69,0,0,1,4.52-4.87,4.68,4.68,0,0,1,.13,9.37Zm0-18.4a4.69,4.69,0,0,1-4.66-4.75,4.63,4.63,0,0,1,4.6-4.62A4.7,4.7,0,0,1,333.7,278,4.64,4.64,0,0,1,329.09,282.57Z" transform="translate(-210.89 -209.74)"/></svg>
